<svg xmlns="http://www.w3.org/2000/svg" viewBox="0 0 320 320" width="320" height="320">
  <title>Breakthrough — starting position (7×7)</title>

  <defs>
    <symbol id="piece-p" viewBox="0 0 45 45"><path d="M 22,9 C 19.79,9 18,10.79 18,13 C 18,13.89 18.29,14.71 18.78,15.38 C 16.83,16.5 15.5,18.59 15.5,21 C 15.5,23.03 16.44,24.84 17.91,26.03 C 14.91,27.09 10.5,31.58 10.5,39.5 L 33.5,39.5 C 33.5,31.58 29.09,27.09 26.09,26.03 C 27.56,24.84 28.5,23.03 28.5,21 C 28.5,18.59 27.17,16.5 25.22,15.38 C 25.71,14.71 26,13.89 26,13 C 26,10.79 24.21,9 22,9 z" style="fill:#000;stroke:#000;stroke-width:1.5;stroke-linecap:round"/></symbol>
    <symbol id="piece-P" viewBox="0 0 45 45"><path d="M 22,9 C 19.79,9 18,10.79 18,13 C 18,13.89 18.29,14.71 18.78,15.38 C 16.83,16.5 15.5,18.59 15.5,21 C 15.5,23.03 16.44,24.84 17.91,26.03 C 14.91,27.09 10.5,31.58 10.5,39.5 L 33.5,39.5 C 33.5,31.58 29.09,27.09 26.09,26.03 C 27.56,24.84 28.5,23.03 28.5,21 C 28.5,18.59 27.17,16.5 25.22,15.38 C 25.71,14.71 26,13.89 26,13 C 26,10.79 24.21,9 22,9 z" style="fill:#fff;stroke:#000;stroke-width:1.5;stroke-linecap:round"/></symbol>
  </defs>

  <g id="board">
    <rect x="20" y="20" width="40" height="40" fill="#f0d9b5"/>
    <rect x="60" y="20" width="40" height="40" fill="#b58863"/>
    <rect x="100" y="20" width="40" height="40" fill="#f0d9b5"/>
    <rect x="140" y="20" width="40" height="40" fill="#b58863"/>
    <rect x="180" y="20" width="40" height="40" fill="#f0d9b5"/>
    <rect x="220" y="20" width="40" height="40" fill="#b58863"/>
    <rect x="260" y="20" width="40" height="40" fill="#f0d9b5"/>
    <rect x="20" y="60" width="40" height="40" fill="#b58863"/>
    <rect x="60" y="60" width="40" height="40" fill="#f0d9b5"/>
    <rect x="100" y="60" width="40" height="40" fill="#b58863"/>
    <rect x="140" y="60" width="40" height="40" fill="#f0d9b5"/>
    <rect x="180" y="60" width="40" height="40" fill="#b58863"/>
    <rect x="220" y="60" width="40" height="40" fill="#f0d9b5"/>
    <rect x="260" y="60" width="40" height="40" fill="#b58863"/>
    <rect x="20" y="100" width="40" height="40" fill="#f0d9b5"/>
    <rect x="60" y="100" width="40" height="40" fill="#b58863"/>
    <rect x="100" y="100" width="40" height="40" fill="#f0d9b5"/>
    <rect x="140" y="100" width="40" height="40" fill="#b58863"/>
    <rect x="180" y="100" width="40" height="40" fill="#f0d9b5"/>
    <rect x="220" y="100" width="40" height="40" fill="#b58863"/>
    <rect x="260" y="100" width="40" height="40" fill="#f0d9b5"/>
    <rect x="20" y="140" width="40" height="40" fill="#b58863"/>
    <rect x="60" y="140" width="40" height="40" fill="#f0d9b5"/>
    <rect x="100" y="140" width="40" height="40" fill="#b58863"/>
    <rect x="140" y="140" width="40" height="40" fill="#f0d9b5"/>
    <rect x="180" y="140" width="40" height="40" fill="#b58863"/>
    <rect x="220" y="140" width="40" height="40" fill="#f0d9b5"/>
    <rect x="260" y="140" width="40" height="40" fill="#b58863"/>
    <rect x="20" y="180" width="40" height="40" fill="#f0d9b5"/>
    <rect x="60" y="180" width="40" height="40" fill="#b58863"/>
    <rect x="100" y="180" width="40" height="40" fill="#f0d9b5"/>
    <rect x="140" y="180" width="40" height="40" fill="#b58863"/>
    <rect x="180" y="180" width="40" height="40" fill="#f0d9b5"/>
    <rect x="220" y="180" width="40" height="40" fill="#b58863"/>
    <rect x="260" y="180" width="40" height="40" fill="#f0d9b5"/>
    <rect x="20" y="220" width="40" height="40" fill="#b58863"/>
    <rect x="60" y="220" width="40" height="40" fill="#f0d9b5"/>
    <rect x="100" y="220" width="40" height="40" fill="#b58863"/>
    <rect x="140" y="220" width="40" height="40" fill="#f0d9b5"/>
    <rect x="180" y="220" width="40" height="40" fill="#b58863"/>
    <rect x="220" y="220" width="40" height="40" fill="#f0d9b5"/>
    <rect x="260" y="220" width="40" height="40" fill="#b58863"/>
    <rect x="20" y="260" width="40" height="40" fill="#f0d9b5"/>
    <rect x="60" y="260" width="40" height="40" fill="#b58863"/>
    <rect x="100" y="260" width="40" height="40" fill="#f0d9b5"/>
    <rect x="140" y="260" width="40" height="40" fill="#b58863"/>
    <rect x="180" y="260" width="40" height="40" fill="#f0d9b5"/>
    <rect x="220" y="260" width="40" height="40" fill="#b58863"/>
    <rect x="260" y="260" width="40" height="40" fill="#f0d9b5"/>
  </g>

  <g id="pieces">
    <use href="#piece-p" x="22" y="22" width="36" height="36"/>
    <use href="#piece-p" x="62" y="22" width="36" height="36"/>
    <use href="#piece-p" x="102" y="22" width="36" height="36"/>
    <use href="#piece-p" x="142" y="22" width="36" height="36"/>
    <use href="#piece-p" x="182" y="22" width="36" height="36"/>
    <use href="#piece-p" x="222" y="22" width="36" height="36"/>
    <use href="#piece-p" x="262" y="22" width="36" height="36"/>
    <use href="#piece-p" x="22" y="62" width="36" height="36"/>
    <use href="#piece-p" x="62" y="62" width="36" height="36"/>
    <use href="#piece-p" x="102" y="62" width="36" height="36"/>
    <use href="#piece-p" x="142" y="62" width="36" height="36"/>
    <use href="#piece-p" x="182" y="62" width="36" height="36"/>
    <use href="#piece-p" x="222" y="62" width="36" height="36"/>
    <use href="#piece-p" x="262" y="62" width="36" height="36"/>
    <use href="#piece-P" x="22" y="222" width="36" height="36"/>
    <use href="#piece-P" x="62" y="222" width="36" height="36"/>
    <use href="#piece-P" x="102" y="222" width="36" height="36"/>
    <use href="#piece-P" x="142" y="222" width="36" height="36"/>
    <use href="#piece-P" x="182" y="222" width="36" height="36"/>
    <use href="#piece-P" x="222" y="222" width="36" height="36"/>
    <use href="#piece-P" x="262" y="222" width="36" height="36"/>
    <use href="#piece-P" x="22" y="262" width="36" height="36"/>
    <use href="#piece-P" x="62" y="262" width="36" height="36"/>
    <use href="#piece-P" x="102" y="262" width="36" height="36"/>
    <use href="#piece-P" x="142" y="262" width="36" height="36"/>
    <use href="#piece-P" x="182" y="262" width="36" height="36"/>
    <use href="#piece-P" x="222" y="262" width="36" height="36"/>
    <use href="#piece-P" x="262" y="262" width="36" height="36"/>
  </g>

  <g font-family="sans-serif" font-size="11" text-anchor="middle" fill="#555">
    <text x="40" y="315">a</text>
    <text x="80" y="315">b</text>
    <text x="120" y="315">c</text>
    <text x="160" y="315">d</text>
    <text x="200" y="315">e</text>
    <text x="240" y="315">f</text>
    <text x="280" y="315">g</text>
  </g>

  <g font-family="sans-serif" font-size="11" text-anchor="middle" fill="#555">
    <text x="10" y="44">7</text>
    <text x="10" y="84">6</text>
    <text x="10" y="124">5</text>
    <text x="10" y="164">4</text>
    <text x="10" y="204">3</text>
    <text x="10" y="244">2</text>
    <text x="10" y="284">1</text>
  </g>
</svg>