<svg xmlns="http://www.w3.org/2000/svg" viewBox="0 0 320 340" width="320" height="340">
  <title>Breakthrough Starting Position - 7x7 Board</title>

  <!-- Board squares -->
  <g id="board">
    <!-- Rank 7 (row 0 from top) -->
    <rect x="40" y="20" width="40" height="40" fill="#e8d4a8"/>
    <rect x="80" y="20" width="40" height="40" fill="#b58863"/>
    <rect x="120" y="20" width="40" height="40" fill="#e8d4a8"/>
    <rect x="160" y="20" width="40" height="40" fill="#b58863"/>
    <rect x="200" y="20" width="40" height="40" fill="#e8d4a8"/>
    <rect x="240" y="20" width="40" height="40" fill="#b58863"/>
    <rect x="280" y="20" width="40" height="40" fill="#e8d4a8"/>
    <!-- Rank 6 -->
    <rect x="40" y="60" width="40" height="40" fill="#b58863"/>
    <rect x="80" y="60" width="40" height="40" fill="#e8d4a8"/>
    <rect x="120" y="60" width="40" height="40" fill="#b58863"/>
    <rect x="160" y="60" width="40" height="40" fill="#e8d4a8"/>
    <rect x="200" y="60" width="40" height="40" fill="#b58863"/>
    <rect x="240" y="60" width="40" height="40" fill="#e8d4a8"/>
    <rect x="280" y="60" width="40" height="40" fill="#b58863"/>
    <!-- Rank 5 -->
    <rect x="40" y="100" width="40" height="40" fill="#e8d4a8"/>
    <rect x="80" y="100" width="40" height="40" fill="#b58863"/>
    <rect x="120" y="100" width="40" height="40" fill="#e8d4a8"/>
    <rect x="160" y="100" width="40" height="40" fill="#b58863"/>
    <rect x="200" y="100" width="40" height="40" fill="#e8d4a8"/>
    <rect x="240" y="100" width="40" height="40" fill="#b58863"/>
    <rect x="280" y="100" width="40" height="40" fill="#e8d4a8"/>
    <!-- Rank 4 -->
    <rect x="40" y="140" width="40" height="40" fill="#b58863"/>
    <rect x="80" y="140" width="40" height="40" fill="#e8d4a8"/>
    <rect x="120" y="140" width="40" height="40" fill="#b58863"/>
    <rect x="160" y="140" width="40" height="40" fill="#e8d4a8"/>
    <rect x="200" y="140" width="40" height="40" fill="#b58863"/>
    <rect x="240" y="140" width="40" height="40" fill="#e8d4a8"/>
    <rect x="280" y="140" width="40" height="40" fill="#b58863"/>
    <!-- Rank 3 -->
    <rect x="40" y="180" width="40" height="40" fill="#e8d4a8"/>
    <rect x="80" y="180" width="40" height="40" fill="#b58863"/>
    <rect x="120" y="180" width="40" height="40" fill="#e8d4a8"/>
    <rect x="160" y="180" width="40" height="40" fill="#b58863"/>
    <rect x="200" y="180" width="40" height="40" fill="#e8d4a8"/>
    <rect x="240" y="180" width="40" height="40" fill="#b58863"/>
    <rect x="280" y="180" width="40" height="40" fill="#e8d4a8"/>
    <!-- Rank 2 -->
    <rect x="40" y="220" width="40" height="40" fill="#b58863"/>
    <rect x="80" y="220" width="40" height="40" fill="#e8d4a8"/>
    <rect x="120" y="220" width="40" height="40" fill="#b58863"/>
    <rect x="160" y="220" width="40" height="40" fill="#e8d4a8"/>
    <rect x="200" y="220" width="40" height="40" fill="#b58863"/>
    <rect x="240" y="220" width="40" height="40" fill="#e8d4a8"/>
    <rect x="280" y="220" width="40" height="40" fill="#b58863"/>
    <!-- Rank 1 -->
    <rect x="40" y="260" width="40" height="40" fill="#e8d4a8"/>
    <rect x="80" y="260" width="40" height="40" fill="#b58863"/>
    <rect x="120" y="260" width="40" height="40" fill="#e8d4a8"/>
    <rect x="160" y="260" width="40" height="40" fill="#b58863"/>
    <rect x="200" y="260" width="40" height="40" fill="#e8d4a8"/>
    <rect x="240" y="260" width="40" height="40" fill="#b58863"/>
    <rect x="280" y="260" width="40" height="40" fill="#e8d4a8"/>
  </g>

  <!-- Pieces -->
  <g font-family="sans-serif" font-size="14" text-anchor="middle" dominant-baseline="central">
    <!-- Black pawns - Rank 7 -->
    <text x="60" y="40" fill="#f0f0f0">P</text>
    <text x="100" y="40" fill="#f0f0f0">P</text>
    <text x="140" y="40" fill="#f0f0f0">P</text>
    <text x="180" y="40" fill="#f0f0f0">P</text>
    <text x="220" y="40" fill="#f0f0f0">P</text>
    <text x="260" y="40" fill="#f0f0f0">P</text>
    <text x="300" y="40" fill="#f0f0f0">P</text>

    <!-- Black pawns - Rank 6 -->
    <text x="60" y="80" fill="#f0f0f0">P</text>
    <text x="100" y="80" fill="#f0f0f0">P</text>
    <text x="140" y="80" fill="#f0f0f0">P</text>
    <text x="180" y="80" fill="#f0f0f0">P</text>
    <text x="220" y="80" fill="#f0f0f0">P</text>
    <text x="260" y="80" fill="#f0f0f0">P</text>
    <text x="300" y="80" fill="#f0f0f0">P</text>

    <!-- White pawns - Rank 2 -->
    <text x="60" y="240" fill="#222">P</text>
    <text x="100" y="240" fill="#222">P</text>
    <text x="140" y="240" fill="#222">P</text>
    <text x="180" y="240" fill="#222">P</text>
    <text x="220" y="240" fill="#222">P</text>
    <text x="260" y="240" fill="#222">P</text>
    <text x="300" y="240" fill="#222">P</text>

    <!-- White pawns - Rank 1 -->
    <text x="60" y="280" fill="#222">P</text>
    <text x="100" y="280" fill="#222">P</text>
    <text x="140" y="280" fill="#222">P</text>
    <text x="180" y="280" fill="#222">P</text>
    <text x="220" y="280" fill="#222">P</text>
    <text x="260" y="280" fill="#222">P</text>
    <text x="300" y="280" fill="#222">P</text>
  </g>

  <!-- File labels -->
  <g font-family="sans-serif" font-size="11" text-anchor="middle" fill="#555">
    <text x="60" y="315">a</text>
    <text x="100" y="315">b</text>
    <text x="140" y="315">c</text>
    <text x="180" y="315">d</text>
    <text x="220" y="315">e</text>
    <text x="260" y="315">f</text>
    <text x="300" y="315">g</text>
  </g>

  <!-- Rank labels -->
  <g font-family="sans-serif" font-size="11" text-anchor="middle" fill="#555">
    <text x="20" y="44">7</text>
    <text x="20" y="84">6</text>
    <text x="20" y="124">5</text>
    <text x="20" y="164">4</text>
    <text x="20" y="204">3</text>
    <text x="20" y="244">2</text>
    <text x="20" y="284">1</text>
  </g>
</svg>