<svg xmlns="http://www.w3.org/2000/svg" viewBox="0 0 520 380" width="520" height="380">
  <title>Courier Chess Starting Position - 12x8 Board</title>

  <!-- Board squares -->
  <g id="board">
    <!-- Rank 8 (row 0 from top) -->
    <rect x="40" y="20" width="40" height="40" fill="#e8d4a8"/>
    <rect x="80" y="20" width="40" height="40" fill="#b58863"/>
    <rect x="120" y="20" width="40" height="40" fill="#e8d4a8"/>
    <rect x="160" y="20" width="40" height="40" fill="#b58863"/>
    <rect x="200" y="20" width="40" height="40" fill="#e8d4a8"/>
    <rect x="240" y="20" width="40" height="40" fill="#b58863"/>
    <rect x="280" y="20" width="40" height="40" fill="#e8d4a8"/>
    <rect x="320" y="20" width="40" height="40" fill="#b58863"/>
    <rect x="360" y="20" width="40" height="40" fill="#e8d4a8"/>
    <rect x="400" y="20" width="40" height="40" fill="#b58863"/>
    <rect x="440" y="20" width="40" height="40" fill="#e8d4a8"/>
    <rect x="480" y="20" width="40" height="40" fill="#b58863"/>
    <!-- Rank 7 -->
    <rect x="40" y="60" width="40" height="40" fill="#b58863"/>
    <rect x="80" y="60" width="40" height="40" fill="#e8d4a8"/>
    <rect x="120" y="60" width="40" height="40" fill="#b58863"/>
    <rect x="160" y="60" width="40" height="40" fill="#e8d4a8"/>
    <rect x="200" y="60" width="40" height="40" fill="#b58863"/>
    <rect x="240" y="60" width="40" height="40" fill="#e8d4a8"/>
    <rect x="280" y="60" width="40" height="40" fill="#b58863"/>
    <rect x="320" y="60" width="40" height="40" fill="#e8d4a8"/>
    <rect x="360" y="60" width="40" height="40" fill="#b58863"/>
    <rect x="400" y="60" width="40" height="40" fill="#e8d4a8"/>
    <rect x="440" y="60" width="40" height="40" fill="#b58863"/>
    <rect x="480" y="60" width="40" height="40" fill="#e8d4a8"/>
    <!-- Rank 6 -->
    <rect x="40" y="100" width="40" height="40" fill="#e8d4a8"/>
    <rect x="80" y="100" width="40" height="40" fill="#b58863"/>
    <rect x="120" y="100" width="40" height="40" fill="#e8d4a8"/>
    <rect x="160" y="100" width="40" height="40" fill="#b58863"/>
    <rect x="200" y="100" width="40" height="40" fill="#e8d4a8"/>
    <rect x="240" y="100" width="40" height="40" fill="#b58863"/>
    <rect x="280" y="100" width="40" height="40" fill="#e8d4a8"/>
    <rect x="320" y="100" width="40" height="40" fill="#b58863"/>
    <rect x="360" y="100" width="40" height="40" fill="#e8d4a8"/>
    <rect x="400" y="100" width="40" height="40" fill="#b58863"/>
    <rect x="440" y="100" width="40" height="40" fill="#e8d4a8"/>
    <rect x="480" y="100" width="40" height="40" fill="#b58863"/>
    <!-- Rank 5 -->
    <rect x="40" y="140" width="40" height="40" fill="#b58863"/>
    <rect x="80" y="140" width="40" height="40" fill="#e8d4a8"/>
    <rect x="120" y="140" width="40" height="40" fill="#b58863"/>
    <rect x="160" y="140" width="40" height="40" fill="#e8d4a8"/>
    <rect x="200" y="140" width="40" height="40" fill="#b58863"/>
    <rect x="240" y="140" width="40" height="40" fill="#e8d4a8"/>
    <rect x="280" y="140" width="40" height="40" fill="#b58863"/>
    <rect x="320" y="140" width="40" height="40" fill="#e8d4a8"/>
    <rect x="360" y="140" width="40" height="40" fill="#b58863"/>
    <rect x="400" y="140" width="40" height="40" fill="#e8d4a8"/>
    <rect x="440" y="140" width="40" height="40" fill="#b58863"/>
    <rect x="480" y="140" width="40" height="40" fill="#e8d4a8"/>
    <!-- Rank 4 -->
    <rect x="40" y="180" width="40" height="40" fill="#e8d4a8"/>
    <rect x="80" y="180" width="40" height="40" fill="#b58863"/>
    <rect x="120" y="180" width="40" height="40" fill="#e8d4a8"/>
    <rect x="160" y="180" width="40" height="40" fill="#b58863"/>
    <rect x="200" y="180" width="40" height="40" fill="#e8d4a8"/>
    <rect x="240" y="180" width="40" height="40" fill="#b58863"/>
    <rect x="280" y="180" width="40" height="40" fill="#e8d4a8"/>
    <rect x="320" y="180" width="40" height="40" fill="#b58863"/>
    <rect x="360" y="180" width="40" height="40" fill="#e8d4a8"/>
    <rect x="400" y="180" width="40" height="40" fill="#b58863"/>
    <rect x="440" y="180" width="40" height="40" fill="#e8d4a8"/>
    <rect x="480" y="180" width="40" height="40" fill="#b58863"/>
    <!-- Rank 3 -->
    <rect x="40" y="220" width="40" height="40" fill="#b58863"/>
    <rect x="80" y="220" width="40" height="40" fill="#e8d4a8"/>
    <rect x="120" y="220" width="40" height="40" fill="#b58863"/>
    <rect x="160" y="220" width="40" height="40" fill="#e8d4a8"/>
    <rect x="200" y="220" width="40" height="40" fill="#b58863"/>
    <rect x="240" y="220" width="40" height="40" fill="#e8d4a8"/>
    <rect x="280" y="220" width="40" height="40" fill="#b58863"/>
    <rect x="320" y="220" width="40" height="40" fill="#e8d4a8"/>
    <rect x="360" y="220" width="40" height="40" fill="#b58863"/>
    <rect x="400" y="220" width="40" height="40" fill="#e8d4a8"/>
    <rect x="440" y="220" width="40" height="40" fill="#b58863"/>
    <rect x="480" y="220" width="40" height="40" fill="#e8d4a8"/>
    <!-- Rank 2 -->
    <rect x="40" y="260" width="40" height="40" fill="#e8d4a8"/>
    <rect x="80" y="260" width="40" height="40" fill="#b58863"/>
    <rect x="120" y="260" width="40" height="40" fill="#e8d4a8"/>
    <rect x="160" y="260" width="40" height="40" fill="#b58863"/>
    <rect x="200" y="260" width="40" height="40" fill="#e8d4a8"/>
    <rect x="240" y="260" width="40" height="40" fill="#b58863"/>
    <rect x="280" y="260" width="40" height="40" fill="#e8d4a8"/>
    <rect x="320" y="260" width="40" height="40" fill="#b58863"/>
    <rect x="360" y="260" width="40" height="40" fill="#e8d4a8"/>
    <rect x="400" y="260" width="40" height="40" fill="#b58863"/>
    <rect x="440" y="260" width="40" height="40" fill="#e8d4a8"/>
    <rect x="480" y="260" width="40" height="40" fill="#b58863"/>
    <!-- Rank 1 -->
    <rect x="40" y="300" width="40" height="40" fill="#b58863"/>
    <rect x="80" y="300" width="40" height="40" fill="#e8d4a8"/>
    <rect x="120" y="300" width="40" height="40" fill="#b58863"/>
    <rect x="160" y="300" width="40" height="40" fill="#e8d4a8"/>
    <rect x="200" y="300" width="40" height="40" fill="#b58863"/>
    <rect x="240" y="300" width="40" height="40" fill="#e8d4a8"/>
    <rect x="280" y="300" width="40" height="40" fill="#b58863"/>
    <rect x="320" y="300" width="40" height="40" fill="#e8d4a8"/>
    <rect x="360" y="300" width="40" height="40" fill="#b58863"/>
    <rect x="400" y="300" width="40" height="40" fill="#e8d4a8"/>
    <rect x="440" y="300" width="40" height="40" fill="#b58863"/>
    <rect x="480" y="300" width="40" height="40" fill="#e8d4a8"/>
  </g>

  <!-- Pieces -->
  <g font-family="sans-serif" font-size="13" text-anchor="middle" dominant-baseline="central">
    <!-- Black pieces - Rank 8: R N E Co S K G Co E N R R -->
    <text x="60" y="40" fill="#f0f0f0">R</text>
    <text x="100" y="40" fill="#f0f0f0">N</text>
    <text x="140" y="40" fill="#f0f0f0">E</text>
    <text x="180" y="40" fill="#f0f0f0">Co</text>
    <text x="220" y="40" fill="#f0f0f0">S</text>
    <text x="260" y="40" fill="#f0f0f0">K</text>
    <text x="300" y="40" fill="#f0f0f0">G</text>
    <text x="340" y="40" fill="#f0f0f0">Co</text>
    <text x="380" y="40" fill="#f0f0f0">E</text>
    <text x="420" y="40" fill="#f0f0f0">N</text>
    <text x="460" y="40" fill="#f0f0f0">R</text>
    <text x="500" y="40" fill="#f0f0f0">R</text>

    <!-- Black pawns - Rank 7 -->
    <text x="60" y="80" fill="#f0f0f0">P</text>
    <text x="100" y="80" fill="#f0f0f0">P</text>
    <text x="140" y="80" fill="#f0f0f0">P</text>
    <text x="180" y="80" fill="#f0f0f0">P</text>
    <text x="220" y="80" fill="#f0f0f0">P</text>
    <text x="260" y="80" fill="#f0f0f0">P</text>
    <text x="300" y="80" fill="#f0f0f0">P</text>
    <text x="340" y="80" fill="#f0f0f0">P</text>
    <text x="380" y="80" fill="#f0f0f0">P</text>
    <text x="420" y="80" fill="#f0f0f0">P</text>
    <text x="460" y="80" fill="#f0f0f0">P</text>
    <text x="500" y="80" fill="#f0f0f0">P</text>

    <!-- White pawns - Rank 2 -->
    <text x="60" y="280" fill="#222">P</text>
    <text x="100" y="280" fill="#222">P</text>
    <text x="140" y="280" fill="#222">P</text>
    <text x="180" y="280" fill="#222">P</text>
    <text x="220" y="280" fill="#222">P</text>
    <text x="260" y="280" fill="#222">P</text>
    <text x="300" y="280" fill="#222">P</text>
    <text x="340" y="280" fill="#222">P</text>
    <text x="380" y="280" fill="#222">P</text>
    <text x="420" y="280" fill="#222">P</text>
    <text x="460" y="280" fill="#222">P</text>
    <text x="500" y="280" fill="#222">P</text>

    <!-- White pieces - Rank 1: R N E Co S K G Co E N R R -->
    <text x="60" y="320" fill="#222">R</text>
    <text x="100" y="320" fill="#222">N</text>
    <text x="140" y="320" fill="#222">E</text>
    <text x="180" y="320" fill="#222">Co</text>
    <text x="220" y="320" fill="#222">S</text>
    <text x="260" y="320" fill="#222">K</text>
    <text x="300" y="320" fill="#222">G</text>
    <text x="340" y="320" fill="#222">Co</text>
    <text x="380" y="320" fill="#222">E</text>
    <text x="420" y="320" fill="#222">N</text>
    <text x="460" y="320" fill="#222">R</text>
    <text x="500" y="320" fill="#222">R</text>
  </g>

  <!-- File labels -->
  <g font-family="sans-serif" font-size="11" text-anchor="middle" fill="#555">
    <text x="60" y="355">a</text>
    <text x="100" y="355">b</text>
    <text x="140" y="355">c</text>
    <text x="180" y="355">d</text>
    <text x="220" y="355">e</text>
    <text x="260" y="355">f</text>
    <text x="300" y="355">g</text>
    <text x="340" y="355">h</text>
    <text x="380" y="355">i</text>
    <text x="420" y="355">j</text>
    <text x="460" y="355">k</text>
    <text x="500" y="355">l</text>
  </g>

  <!-- Rank labels -->
  <g font-family="sans-serif" font-size="11" text-anchor="middle" fill="#555">
    <text x="20" y="44">8</text>
    <text x="20" y="84">7</text>
    <text x="20" y="124">6</text>
    <text x="20" y="164">5</text>
    <text x="20" y="204">4</text>
    <text x="20" y="244">3</text>
    <text x="20" y="284">2</text>
    <text x="20" y="324">1</text>
  </g>
</svg>