<svg xmlns="http://www.w3.org/2000/svg" viewBox="0 0 440 460" width="440" height="460">
  <title>Grand Chess Starting Position - 10x10 Board</title>

  <!-- Board squares -->
  <g id="board">
    <!-- Rank 10 (row 0 from top) -->
    <rect x="40" y="20" width="40" height="40" fill="#e8d4a8"/>
    <rect x="80" y="20" width="40" height="40" fill="#b58863"/>
    <rect x="120" y="20" width="40" height="40" fill="#e8d4a8"/>
    <rect x="160" y="20" width="40" height="40" fill="#b58863"/>
    <rect x="200" y="20" width="40" height="40" fill="#e8d4a8"/>
    <rect x="240" y="20" width="40" height="40" fill="#b58863"/>
    <rect x="280" y="20" width="40" height="40" fill="#e8d4a8"/>
    <rect x="320" y="20" width="40" height="40" fill="#b58863"/>
    <rect x="360" y="20" width="40" height="40" fill="#e8d4a8"/>
    <rect x="400" y="20" width="40" height="40" fill="#b58863"/>
    <!-- Rank 9 -->
    <rect x="40" y="60" width="40" height="40" fill="#b58863"/>
    <rect x="80" y="60" width="40" height="40" fill="#e8d4a8"/>
    <rect x="120" y="60" width="40" height="40" fill="#b58863"/>
    <rect x="160" y="60" width="40" height="40" fill="#e8d4a8"/>
    <rect x="200" y="60" width="40" height="40" fill="#b58863"/>
    <rect x="240" y="60" width="40" height="40" fill="#e8d4a8"/>
    <rect x="280" y="60" width="40" height="40" fill="#b58863"/>
    <rect x="320" y="60" width="40" height="40" fill="#e8d4a8"/>
    <rect x="360" y="60" width="40" height="40" fill="#b58863"/>
    <rect x="400" y="60" width="40" height="40" fill="#e8d4a8"/>
    <!-- Rank 8 -->
    <rect x="40" y="100" width="40" height="40" fill="#e8d4a8"/>
    <rect x="80" y="100" width="40" height="40" fill="#b58863"/>
    <rect x="120" y="100" width="40" height="40" fill="#e8d4a8"/>
    <rect x="160" y="100" width="40" height="40" fill="#b58863"/>
    <rect x="200" y="100" width="40" height="40" fill="#e8d4a8"/>
    <rect x="240" y="100" width="40" height="40" fill="#b58863"/>
    <rect x="280" y="100" width="40" height="40" fill="#e8d4a8"/>
    <rect x="320" y="100" width="40" height="40" fill="#b58863"/>
    <rect x="360" y="100" width="40" height="40" fill="#e8d4a8"/>
    <rect x="400" y="100" width="40" height="40" fill="#b58863"/>
    <!-- Rank 7 -->
    <rect x="40" y="140" width="40" height="40" fill="#b58863"/>
    <rect x="80" y="140" width="40" height="40" fill="#e8d4a8"/>
    <rect x="120" y="140" width="40" height="40" fill="#b58863"/>
    <rect x="160" y="140" width="40" height="40" fill="#e8d4a8"/>
    <rect x="200" y="140" width="40" height="40" fill="#b58863"/>
    <rect x="240" y="140" width="40" height="40" fill="#e8d4a8"/>
    <rect x="280" y="140" width="40" height="40" fill="#b58863"/>
    <rect x="320" y="140" width="40" height="40" fill="#e8d4a8"/>
    <rect x="360" y="140" width="40" height="40" fill="#b58863"/>
    <rect x="400" y="140" width="40" height="40" fill="#e8d4a8"/>
    <!-- Rank 6 -->
    <rect x="40" y="180" width="40" height="40" fill="#e8d4a8"/>
    <rect x="80" y="180" width="40" height="40" fill="#b58863"/>
    <rect x="120" y="180" width="40" height="40" fill="#e8d4a8"/>
    <rect x="160" y="180" width="40" height="40" fill="#b58863"/>
    <rect x="200" y="180" width="40" height="40" fill="#e8d4a8"/>
    <rect x="240" y="180" width="40" height="40" fill="#b58863"/>
    <rect x="280" y="180" width="40" height="40" fill="#e8d4a8"/>
    <rect x="320" y="180" width="40" height="40" fill="#b58863"/>
    <rect x="360" y="180" width="40" height="40" fill="#e8d4a8"/>
    <rect x="400" y="180" width="40" height="40" fill="#b58863"/>
    <!-- Rank 5 -->
    <rect x="40" y="220" width="40" height="40" fill="#b58863"/>
    <rect x="80" y="220" width="40" height="40" fill="#e8d4a8"/>
    <rect x="120" y="220" width="40" height="40" fill="#b58863"/>
    <rect x="160" y="220" width="40" height="40" fill="#e8d4a8"/>
    <rect x="200" y="220" width="40" height="40" fill="#b58863"/>
    <rect x="240" y="220" width="40" height="40" fill="#e8d4a8"/>
    <rect x="280" y="220" width="40" height="40" fill="#b58863"/>
    <rect x="320" y="220" width="40" height="40" fill="#e8d4a8"/>
    <rect x="360" y="220" width="40" height="40" fill="#b58863"/>
    <rect x="400" y="220" width="40" height="40" fill="#e8d4a8"/>
    <!-- Rank 4 -->
    <rect x="40" y="260" width="40" height="40" fill="#e8d4a8"/>
    <rect x="80" y="260" width="40" height="40" fill="#b58863"/>
    <rect x="120" y="260" width="40" height="40" fill="#e8d4a8"/>
    <rect x="160" y="260" width="40" height="40" fill="#b58863"/>
    <rect x="200" y="260" width="40" height="40" fill="#e8d4a8"/>
    <rect x="240" y="260" width="40" height="40" fill="#b58863"/>
    <rect x="280" y="260" width="40" height="40" fill="#e8d4a8"/>
    <rect x="320" y="260" width="40" height="40" fill="#b58863"/>
    <rect x="360" y="260" width="40" height="40" fill="#e8d4a8"/>
    <rect x="400" y="260" width="40" height="40" fill="#b58863"/>
    <!-- Rank 3 -->
    <rect x="40" y="300" width="40" height="40" fill="#b58863"/>
    <rect x="80" y="300" width="40" height="40" fill="#e8d4a8"/>
    <rect x="120" y="300" width="40" height="40" fill="#b58863"/>
    <rect x="160" y="300" width="40" height="40" fill="#e8d4a8"/>
    <rect x="200" y="300" width="40" height="40" fill="#b58863"/>
    <rect x="240" y="300" width="40" height="40" fill="#e8d4a8"/>
    <rect x="280" y="300" width="40" height="40" fill="#b58863"/>
    <rect x="320" y="300" width="40" height="40" fill="#e8d4a8"/>
    <rect x="360" y="300" width="40" height="40" fill="#b58863"/>
    <rect x="400" y="300" width="40" height="40" fill="#e8d4a8"/>
    <!-- Rank 2 -->
    <rect x="40" y="340" width="40" height="40" fill="#e8d4a8"/>
    <rect x="80" y="340" width="40" height="40" fill="#b58863"/>
    <rect x="120" y="340" width="40" height="40" fill="#e8d4a8"/>
    <rect x="160" y="340" width="40" height="40" fill="#b58863"/>
    <rect x="200" y="340" width="40" height="40" fill="#e8d4a8"/>
    <rect x="240" y="340" width="40" height="40" fill="#b58863"/>
    <rect x="280" y="340" width="40" height="40" fill="#e8d4a8"/>
    <rect x="320" y="340" width="40" height="40" fill="#b58863"/>
    <rect x="360" y="340" width="40" height="40" fill="#e8d4a8"/>
    <rect x="400" y="340" width="40" height="40" fill="#b58863"/>
    <!-- Rank 1 -->
    <rect x="40" y="380" width="40" height="40" fill="#b58863"/>
    <rect x="80" y="380" width="40" height="40" fill="#e8d4a8"/>
    <rect x="120" y="380" width="40" height="40" fill="#b58863"/>
    <rect x="160" y="380" width="40" height="40" fill="#e8d4a8"/>
    <rect x="200" y="380" width="40" height="40" fill="#b58863"/>
    <rect x="240" y="380" width="40" height="40" fill="#e8d4a8"/>
    <rect x="280" y="380" width="40" height="40" fill="#b58863"/>
    <rect x="320" y="380" width="40" height="40" fill="#e8d4a8"/>
    <rect x="360" y="380" width="40" height="40" fill="#b58863"/>
    <rect x="400" y="380" width="40" height="40" fill="#e8d4a8"/>
  </g>

  <!-- Pieces -->
  <g font-family="sans-serif" font-size="22" text-anchor="middle" dominant-baseline="central">
    <!-- Black pieces - Rank 10 (back rank): R N B Q C K A B N R -->
    <text x="60" y="40" fill="#f0f0f0">&#x265C;</text>
    <text x="100" y="40" fill="#f0f0f0">&#x265E;</text>
    <text x="140" y="40" fill="#f0f0f0">&#x265D;</text>
    <text x="180" y="40" fill="#f0f0f0">&#x265B;</text>
    <text x="220" y="40" fill="#f0f0f0" font-size="9">&#x265C;&#x265E;</text>
    <text x="260" y="40" fill="#f0f0f0">&#x265A;</text>
    <text x="300" y="40" fill="#f0f0f0" font-size="9">&#x265D;&#x265E;</text>
    <text x="340" y="40" fill="#f0f0f0">&#x265D;</text>
    <text x="380" y="40" fill="#f0f0f0">&#x265E;</text>
    <text x="420" y="40" fill="#f0f0f0">&#x265C;</text>

    <!-- Black pawns - Rank 8 -->
    <text x="60" y="120" fill="#f0f0f0">&#x265F;</text>
    <text x="100" y="120" fill="#f0f0f0">&#x265F;</text>
    <text x="140" y="120" fill="#f0f0f0">&#x265F;</text>
    <text x="180" y="120" fill="#f0f0f0">&#x265F;</text>
    <text x="220" y="120" fill="#f0f0f0">&#x265F;</text>
    <text x="260" y="120" fill="#f0f0f0">&#x265F;</text>
    <text x="300" y="120" fill="#f0f0f0">&#x265F;</text>
    <text x="340" y="120" fill="#f0f0f0">&#x265F;</text>
    <text x="380" y="120" fill="#f0f0f0">&#x265F;</text>
    <text x="420" y="120" fill="#f0f0f0">&#x265F;</text>

    <!-- White pawns - Rank 3 -->
    <text x="60" y="320" fill="#222">&#x2659;</text>
    <text x="100" y="320" fill="#222">&#x2659;</text>
    <text x="140" y="320" fill="#222">&#x2659;</text>
    <text x="180" y="320" fill="#222">&#x2659;</text>
    <text x="220" y="320" fill="#222">&#x2659;</text>
    <text x="260" y="320" fill="#222">&#x2659;</text>
    <text x="300" y="320" fill="#222">&#x2659;</text>
    <text x="340" y="320" fill="#222">&#x2659;</text>
    <text x="380" y="320" fill="#222">&#x2659;</text>
    <text x="420" y="320" fill="#222">&#x2659;</text>

    <!-- White pieces - Rank 1 (back rank): R N B Q C K A B N R -->
    <text x="60" y="400" fill="#222">&#x2656;</text>
    <text x="100" y="400" fill="#222">&#x2658;</text>
    <text x="140" y="400" fill="#222">&#x2657;</text>
    <text x="180" y="400" fill="#222">&#x2655;</text>
    <text x="220" y="400" fill="#222" font-size="9">&#x2656;&#x2658;</text>
    <text x="260" y="400" fill="#222">&#x2654;</text>
    <text x="300" y="400" fill="#222" font-size="9">&#x2657;&#x2658;</text>
    <text x="340" y="400" fill="#222">&#x2657;</text>
    <text x="380" y="400" fill="#222">&#x2658;</text>
    <text x="420" y="400" fill="#222">&#x2656;</text>
  </g>

  <!-- File labels -->
  <g font-family="sans-serif" font-size="11" text-anchor="middle" fill="#555">
    <text x="60" y="435">a</text>
    <text x="100" y="435">b</text>
    <text x="140" y="435">c</text>
    <text x="180" y="435">d</text>
    <text x="220" y="435">e</text>
    <text x="260" y="435">f</text>
    <text x="300" y="435">g</text>
    <text x="340" y="435">h</text>
    <text x="380" y="435">i</text>
    <text x="420" y="435">j</text>
  </g>

  <!-- Rank labels -->
  <g font-family="sans-serif" font-size="11" text-anchor="middle" fill="#555">
    <text x="20" y="44">10</text>
    <text x="20" y="84">9</text>
    <text x="20" y="124">8</text>
    <text x="20" y="164">7</text>
    <text x="20" y="204">6</text>
    <text x="20" y="244">5</text>
    <text x="20" y="284">4</text>
    <text x="20" y="324">3</text>
    <text x="20" y="364">2</text>
    <text x="20" y="404">1</text>
  </g>
</svg>