<svg xmlns="http://www.w3.org/2000/svg" viewBox="0 0 280 280" width="280" height="280">
  <title>Los Alamos Chess — starting position (6×6)</title>

  <g id="board">
    <rect x="20" y="20" width="40" height="40" fill="#e8d4a8"/>
    <rect x="60" y="20" width="40" height="40" fill="#b58863"/>
    <rect x="100" y="20" width="40" height="40" fill="#e8d4a8"/>
    <rect x="140" y="20" width="40" height="40" fill="#b58863"/>
    <rect x="180" y="20" width="40" height="40" fill="#e8d4a8"/>
    <rect x="220" y="20" width="40" height="40" fill="#b58863"/>
    <rect x="20" y="60" width="40" height="40" fill="#b58863"/>
    <rect x="60" y="60" width="40" height="40" fill="#e8d4a8"/>
    <rect x="100" y="60" width="40" height="40" fill="#b58863"/>
    <rect x="140" y="60" width="40" height="40" fill="#e8d4a8"/>
    <rect x="180" y="60" width="40" height="40" fill="#b58863"/>
    <rect x="220" y="60" width="40" height="40" fill="#e8d4a8"/>
    <rect x="20" y="100" width="40" height="40" fill="#e8d4a8"/>
    <rect x="60" y="100" width="40" height="40" fill="#b58863"/>
    <rect x="100" y="100" width="40" height="40" fill="#e8d4a8"/>
    <rect x="140" y="100" width="40" height="40" fill="#b58863"/>
    <rect x="180" y="100" width="40" height="40" fill="#e8d4a8"/>
    <rect x="220" y="100" width="40" height="40" fill="#b58863"/>
    <rect x="20" y="140" width="40" height="40" fill="#b58863"/>
    <rect x="60" y="140" width="40" height="40" fill="#e8d4a8"/>
    <rect x="100" y="140" width="40" height="40" fill="#b58863"/>
    <rect x="140" y="140" width="40" height="40" fill="#e8d4a8"/>
    <rect x="180" y="140" width="40" height="40" fill="#b58863"/>
    <rect x="220" y="140" width="40" height="40" fill="#e8d4a8"/>
    <rect x="20" y="180" width="40" height="40" fill="#e8d4a8"/>
    <rect x="60" y="180" width="40" height="40" fill="#b58863"/>
    <rect x="100" y="180" width="40" height="40" fill="#e8d4a8"/>
    <rect x="140" y="180" width="40" height="40" fill="#b58863"/>
    <rect x="180" y="180" width="40" height="40" fill="#e8d4a8"/>
    <rect x="220" y="180" width="40" height="40" fill="#b58863"/>
    <rect x="20" y="220" width="40" height="40" fill="#b58863"/>
    <rect x="60" y="220" width="40" height="40" fill="#e8d4a8"/>
    <rect x="100" y="220" width="40" height="40" fill="#b58863"/>
    <rect x="140" y="220" width="40" height="40" fill="#e8d4a8"/>
    <rect x="180" y="220" width="40" height="40" fill="#b58863"/>
    <rect x="220" y="220" width="40" height="40" fill="#e8d4a8"/>
  </g>

  <g font-family="sans-serif" font-size="22" text-anchor="middle" dominant-baseline="central">
    <text x="40" y="40" fill="#f0f0f0">♜</text>
    <text x="80" y="40" fill="#f0f0f0">♞</text>
    <text x="120" y="40" fill="#f0f0f0">♛</text>
    <text x="160" y="40" fill="#f0f0f0">♚</text>
    <text x="200" y="40" fill="#f0f0f0">♞</text>
    <text x="240" y="40" fill="#f0f0f0">♜</text>
    <text x="40" y="80" fill="#f0f0f0">♟</text>
    <text x="80" y="80" fill="#f0f0f0">♟</text>
    <text x="120" y="80" fill="#f0f0f0">♟</text>
    <text x="160" y="80" fill="#f0f0f0">♟</text>
    <text x="200" y="80" fill="#f0f0f0">♟</text>
    <text x="240" y="80" fill="#f0f0f0">♟</text>
    <text x="40" y="200" fill="#222">♙</text>
    <text x="80" y="200" fill="#222">♙</text>
    <text x="120" y="200" fill="#222">♙</text>
    <text x="160" y="200" fill="#222">♙</text>
    <text x="200" y="200" fill="#222">♙</text>
    <text x="240" y="200" fill="#222">♙</text>
    <text x="40" y="240" fill="#222">♖</text>
    <text x="80" y="240" fill="#222">♘</text>
    <text x="120" y="240" fill="#222">♕</text>
    <text x="160" y="240" fill="#222">♔</text>
    <text x="200" y="240" fill="#222">♘</text>
    <text x="240" y="240" fill="#222">♖</text>
  </g>

  <g font-family="sans-serif" font-size="11" text-anchor="middle" fill="#555">
    <text x="40" y="275">a</text>
    <text x="80" y="275">b</text>
    <text x="120" y="275">c</text>
    <text x="160" y="275">d</text>
    <text x="200" y="275">e</text>
    <text x="240" y="275">f</text>
  </g>

  <g font-family="sans-serif" font-size="11" text-anchor="middle" fill="#555">
    <text x="10" y="42">6</text>
    <text x="10" y="82">5</text>
    <text x="10" y="122">4</text>
    <text x="10" y="162">3</text>
    <text x="10" y="202">2</text>
    <text x="10" y="242">1</text>
  </g>
</svg>