<svg xmlns="http://www.w3.org/2000/svg" viewBox="0 0 360 360" width="360" height="360">
  <title>Maharaja & Sepoys — starting position (8×8)</title>

  <g id="board">
    <rect x="20" y="20" width="40" height="40" fill="#e8d4a8"/>
    <rect x="60" y="20" width="40" height="40" fill="#b58863"/>
    <rect x="100" y="20" width="40" height="40" fill="#e8d4a8"/>
    <rect x="140" y="20" width="40" height="40" fill="#b58863"/>
    <rect x="180" y="20" width="40" height="40" fill="#e8d4a8"/>
    <rect x="220" y="20" width="40" height="40" fill="#b58863"/>
    <rect x="260" y="20" width="40" height="40" fill="#e8d4a8"/>
    <rect x="300" y="20" width="40" height="40" fill="#b58863"/>
    <rect x="20" y="60" width="40" height="40" fill="#b58863"/>
    <rect x="60" y="60" width="40" height="40" fill="#e8d4a8"/>
    <rect x="100" y="60" width="40" height="40" fill="#b58863"/>
    <rect x="140" y="60" width="40" height="40" fill="#e8d4a8"/>
    <rect x="180" y="60" width="40" height="40" fill="#b58863"/>
    <rect x="220" y="60" width="40" height="40" fill="#e8d4a8"/>
    <rect x="260" y="60" width="40" height="40" fill="#b58863"/>
    <rect x="300" y="60" width="40" height="40" fill="#e8d4a8"/>
    <rect x="20" y="100" width="40" height="40" fill="#e8d4a8"/>
    <rect x="60" y="100" width="40" height="40" fill="#b58863"/>
    <rect x="100" y="100" width="40" height="40" fill="#e8d4a8"/>
    <rect x="140" y="100" width="40" height="40" fill="#b58863"/>
    <rect x="180" y="100" width="40" height="40" fill="#e8d4a8"/>
    <rect x="220" y="100" width="40" height="40" fill="#b58863"/>
    <rect x="260" y="100" width="40" height="40" fill="#e8d4a8"/>
    <rect x="300" y="100" width="40" height="40" fill="#b58863"/>
    <rect x="20" y="140" width="40" height="40" fill="#b58863"/>
    <rect x="60" y="140" width="40" height="40" fill="#e8d4a8"/>
    <rect x="100" y="140" width="40" height="40" fill="#b58863"/>
    <rect x="140" y="140" width="40" height="40" fill="#e8d4a8"/>
    <rect x="180" y="140" width="40" height="40" fill="#b58863"/>
    <rect x="220" y="140" width="40" height="40" fill="#e8d4a8"/>
    <rect x="260" y="140" width="40" height="40" fill="#b58863"/>
    <rect x="300" y="140" width="40" height="40" fill="#e8d4a8"/>
    <rect x="20" y="180" width="40" height="40" fill="#e8d4a8"/>
    <rect x="60" y="180" width="40" height="40" fill="#b58863"/>
    <rect x="100" y="180" width="40" height="40" fill="#e8d4a8"/>
    <rect x="140" y="180" width="40" height="40" fill="#b58863"/>
    <rect x="180" y="180" width="40" height="40" fill="#e8d4a8"/>
    <rect x="220" y="180" width="40" height="40" fill="#b58863"/>
    <rect x="260" y="180" width="40" height="40" fill="#e8d4a8"/>
    <rect x="300" y="180" width="40" height="40" fill="#b58863"/>
    <rect x="20" y="220" width="40" height="40" fill="#b58863"/>
    <rect x="60" y="220" width="40" height="40" fill="#e8d4a8"/>
    <rect x="100" y="220" width="40" height="40" fill="#b58863"/>
    <rect x="140" y="220" width="40" height="40" fill="#e8d4a8"/>
    <rect x="180" y="220" width="40" height="40" fill="#b58863"/>
    <rect x="220" y="220" width="40" height="40" fill="#e8d4a8"/>
    <rect x="260" y="220" width="40" height="40" fill="#b58863"/>
    <rect x="300" y="220" width="40" height="40" fill="#e8d4a8"/>
    <rect x="20" y="260" width="40" height="40" fill="#e8d4a8"/>
    <rect x="60" y="260" width="40" height="40" fill="#b58863"/>
    <rect x="100" y="260" width="40" height="40" fill="#e8d4a8"/>
    <rect x="140" y="260" width="40" height="40" fill="#b58863"/>
    <rect x="180" y="260" width="40" height="40" fill="#e8d4a8"/>
    <rect x="220" y="260" width="40" height="40" fill="#b58863"/>
    <rect x="260" y="260" width="40" height="40" fill="#e8d4a8"/>
    <rect x="300" y="260" width="40" height="40" fill="#b58863"/>
    <rect x="20" y="300" width="40" height="40" fill="#b58863"/>
    <rect x="60" y="300" width="40" height="40" fill="#e8d4a8"/>
    <rect x="100" y="300" width="40" height="40" fill="#b58863"/>
    <rect x="140" y="300" width="40" height="40" fill="#e8d4a8"/>
    <rect x="180" y="300" width="40" height="40" fill="#b58863"/>
    <rect x="220" y="300" width="40" height="40" fill="#e8d4a8"/>
    <rect x="260" y="300" width="40" height="40" fill="#b58863"/>
    <rect x="300" y="300" width="40" height="40" fill="#e8d4a8"/>
  </g>

  <g font-family="sans-serif" font-size="22" text-anchor="middle" dominant-baseline="central">
    <text x="40" y="40" fill="#f0f0f0">♜</text>
    <text x="80" y="40" fill="#f0f0f0">♞</text>
    <text x="120" y="40" fill="#f0f0f0">♝</text>
    <text x="160" y="40" fill="#f0f0f0">♛</text>
    <text x="200" y="40" fill="#f0f0f0">♚</text>
    <text x="240" y="40" fill="#f0f0f0">♝</text>
    <text x="280" y="40" fill="#f0f0f0">♞</text>
    <text x="320" y="40" fill="#f0f0f0">♜</text>
    <text x="40" y="80" fill="#f0f0f0">♟</text>
    <text x="80" y="80" fill="#f0f0f0">♟</text>
    <text x="120" y="80" fill="#f0f0f0">♟</text>
    <text x="160" y="80" fill="#f0f0f0">♟</text>
    <text x="200" y="80" fill="#f0f0f0">♟</text>
    <text x="240" y="80" fill="#f0f0f0">♟</text>
    <text x="280" y="80" fill="#f0f0f0">♟</text>
    <text x="320" y="80" fill="#f0f0f0">♟</text>
    <text x="200" y="320" fill="#222">♕</text>
  </g>

  <g font-family="sans-serif" font-size="11" text-anchor="middle" fill="#555">
    <text x="40" y="355">a</text>
    <text x="80" y="355">b</text>
    <text x="120" y="355">c</text>
    <text x="160" y="355">d</text>
    <text x="200" y="355">e</text>
    <text x="240" y="355">f</text>
    <text x="280" y="355">g</text>
    <text x="320" y="355">h</text>
  </g>

  <g font-family="sans-serif" font-size="11" text-anchor="middle" fill="#555">
    <text x="10" y="42">8</text>
    <text x="10" y="82">7</text>
    <text x="10" y="122">6</text>
    <text x="10" y="162">5</text>
    <text x="10" y="202">4</text>
    <text x="10" y="242">3</text>
    <text x="10" y="282">2</text>
    <text x="10" y="322">1</text>
  </g>
</svg>