<svg xmlns="http://www.w3.org/2000/svg" viewBox="0 0 240 240" width="240" height="240">
  <title>Minichess — starting position (5×5)</title>

  <g id="board">
    <rect x="20" y="20" width="40" height="40" fill="#e8d4a8"/>
    <rect x="60" y="20" width="40" height="40" fill="#b58863"/>
    <rect x="100" y="20" width="40" height="40" fill="#e8d4a8"/>
    <rect x="140" y="20" width="40" height="40" fill="#b58863"/>
    <rect x="180" y="20" width="40" height="40" fill="#e8d4a8"/>
    <rect x="20" y="60" width="40" height="40" fill="#b58863"/>
    <rect x="60" y="60" width="40" height="40" fill="#e8d4a8"/>
    <rect x="100" y="60" width="40" height="40" fill="#b58863"/>
    <rect x="140" y="60" width="40" height="40" fill="#e8d4a8"/>
    <rect x="180" y="60" width="40" height="40" fill="#b58863"/>
    <rect x="20" y="100" width="40" height="40" fill="#e8d4a8"/>
    <rect x="60" y="100" width="40" height="40" fill="#b58863"/>
    <rect x="100" y="100" width="40" height="40" fill="#e8d4a8"/>
    <rect x="140" y="100" width="40" height="40" fill="#b58863"/>
    <rect x="180" y="100" width="40" height="40" fill="#e8d4a8"/>
    <rect x="20" y="140" width="40" height="40" fill="#b58863"/>
    <rect x="60" y="140" width="40" height="40" fill="#e8d4a8"/>
    <rect x="100" y="140" width="40" height="40" fill="#b58863"/>
    <rect x="140" y="140" width="40" height="40" fill="#e8d4a8"/>
    <rect x="180" y="140" width="40" height="40" fill="#b58863"/>
    <rect x="20" y="180" width="40" height="40" fill="#e8d4a8"/>
    <rect x="60" y="180" width="40" height="40" fill="#b58863"/>
    <rect x="100" y="180" width="40" height="40" fill="#e8d4a8"/>
    <rect x="140" y="180" width="40" height="40" fill="#b58863"/>
    <rect x="180" y="180" width="40" height="40" fill="#e8d4a8"/>
  </g>

  <g font-family="sans-serif" font-size="22" text-anchor="middle" dominant-baseline="central">
    <text x="40" y="40" fill="#f0f0f0">♚</text>
    <text x="80" y="40" fill="#f0f0f0">♛</text>
    <text x="120" y="40" fill="#f0f0f0">♝</text>
    <text x="160" y="40" fill="#f0f0f0">♞</text>
    <text x="200" y="40" fill="#f0f0f0">♜</text>
    <text x="40" y="80" fill="#f0f0f0">♟</text>
    <text x="80" y="80" fill="#f0f0f0">♟</text>
    <text x="120" y="80" fill="#f0f0f0">♟</text>
    <text x="160" y="80" fill="#f0f0f0">♟</text>
    <text x="200" y="80" fill="#f0f0f0">♟</text>
    <text x="40" y="160" fill="#222">♙</text>
    <text x="80" y="160" fill="#222">♙</text>
    <text x="120" y="160" fill="#222">♙</text>
    <text x="160" y="160" fill="#222">♙</text>
    <text x="200" y="160" fill="#222">♙</text>
    <text x="40" y="200" fill="#222">♖</text>
    <text x="80" y="200" fill="#222">♘</text>
    <text x="120" y="200" fill="#222">♗</text>
    <text x="160" y="200" fill="#222">♕</text>
    <text x="200" y="200" fill="#222">♔</text>
  </g>

  <g font-family="sans-serif" font-size="11" text-anchor="middle" fill="#555">
    <text x="40" y="235">a</text>
    <text x="80" y="235">b</text>
    <text x="120" y="235">c</text>
    <text x="160" y="235">d</text>
    <text x="200" y="235">e</text>
  </g>

  <g font-family="sans-serif" font-size="11" text-anchor="middle" fill="#555">
    <text x="10" y="42">5</text>
    <text x="10" y="82">4</text>
    <text x="10" y="122">3</text>
    <text x="10" y="162">2</text>
    <text x="10" y="202">1</text>
  </g>
</svg>