      <svg viewBox="0 0 302 302" xmlns="http://www.w3.org/2000/svg">
<polygon points="60.25,20.00 60.25,48.00 36.00,62.00 11.75,48.00 11.75,20.00 36.00,6.00" fill="#c8e8a0" stroke="#6aaa3a" stroke-width="1.5"/>
<polygon points="108.75,20.00 108.75,48.00 84.50,62.00 60.25,48.00 60.25,20.00 84.50,6.00" fill="#c8e8a0" stroke="#6aaa3a" stroke-width="1.5"/>
<polygon points="157.24,20.00 157.24,48.00 132.99,62.00 108.74,48.00 108.74,20.00 132.99,6.00" fill="#c8e8a0" stroke="#6aaa3a" stroke-width="1.5"/>
<polygon points="205.74,20.00 205.74,48.00 181.49,62.00 157.24,48.00 157.24,20.00 181.49,6.00" fill="#c8e8a0" stroke="#6aaa3a" stroke-width="1.5"/>
<polygon points="254.24,20.00 254.24,48.00 229.99,62.00 205.74,48.00 205.74,20.00 229.99,6.00" fill="#c8e8a0" stroke="#6aaa3a" stroke-width="1.5"/>
<polygon points="84.50,62.00 84.50,90.00 60.25,104.00 36.00,90.00 36.00,62.00 60.25,48.00" fill="#c8e8a0" stroke="#6aaa3a" stroke-width="1.5"/>
<polygon points="133.00,62.00 133.00,90.00 108.75,104.00 84.50,90.00 84.50,62.00 108.75,48.00" fill="#d8d4ce" stroke="#8c8478" stroke-width="1.5"/>
<polygon points="181.49,62.00 181.49,90.00 157.24,104.00 132.99,90.00 132.99,62.00 157.24,48.00" fill="#c8e8a0" stroke="#6aaa3a" stroke-width="1.5"/>
<polygon points="229.99,62.00 229.99,90.00 205.74,104.00 181.49,90.00 181.49,62.00 205.74,48.00" fill="#c8e8a0" stroke="#6aaa3a" stroke-width="1.5"/>
<polygon points="278.49,62.00 278.49,90.00 254.24,104.00 229.99,90.00 229.99,62.00 254.24,48.00" fill="#c8e8a0" stroke="#6aaa3a" stroke-width="1.5"/>
<polygon points="60.25,104.00 60.25,132.00 36.00,146.00 11.75,132.00 11.75,104.00 36.00,90.00" fill="#c8e8a0" stroke="#6aaa3a" stroke-width="1.5"/>
<polygon points="108.75,104.00 108.75,132.00 84.50,146.00 60.25,132.00 60.25,104.00 84.50,90.00" fill="#c8e8a0" stroke="#6aaa3a" stroke-width="1.5"/>
<polygon points="157.24,104.00 157.24,132.00 132.99,146.00 108.74,132.00 108.74,104.00 132.99,90.00" fill="#c8e8a0" stroke="#6aaa3a" stroke-width="1.5"/>
<polygon points="205.74,104.00 205.74,132.00 181.49,146.00 157.24,132.00 157.24,104.00 181.49,90.00" fill="#c8e8a0" stroke="#6aaa3a" stroke-width="1.5"/>
<polygon points="254.24,104.00 254.24,132.00 229.99,146.00 205.74,132.00 205.74,104.00 229.99,90.00" fill="#d8d4ce" stroke="#8c8478" stroke-width="1.5"/>
<polygon points="84.50,146.00 84.50,174.00 60.25,188.00 36.00,174.00 36.00,146.00 60.25,132.00" fill="#c8e8a0" stroke="#6aaa3a" stroke-width="1.5"/>
<polygon points="133.00,146.00 133.00,174.00 108.75,188.00 84.50,174.00 84.50,146.00 108.75,132.00" fill="#c8e8a0" stroke="#6aaa3a" stroke-width="1.5"/>
<polygon points="181.49,146.00 181.49,174.00 157.24,188.00 132.99,174.00 132.99,146.00 157.24,132.00" fill="#c8e8a0" stroke="#6aaa3a" stroke-width="1.5"/>
<polygon points="229.99,146.00 229.99,174.00 205.74,188.00 181.49,174.00 181.49,146.00 205.74,132.00" fill="#c8e8a0" stroke="#6aaa3a" stroke-width="1.5"/>
<polygon points="278.49,146.00 278.49,174.00 254.24,188.00 229.99,174.00 229.99,146.00 254.24,132.00" fill="#c8e8a0" stroke="#6aaa3a" stroke-width="1.5"/>
<polygon points="60.25,188.00 60.25,216.00 36.00,230.00 11.75,216.00 11.75,188.00 36.00,174.00" fill="#c8e8a0" stroke="#6aaa3a" stroke-width="1.5"/>
<polygon points="108.75,188.00 108.75,216.00 84.50,230.00 60.25,216.00 60.25,188.00 84.50,174.00" fill="#c8e8a0" stroke="#6aaa3a" stroke-width="1.5"/>
<polygon points="157.24,188.00 157.24,216.00 132.99,230.00 108.74,216.00 108.74,188.00 132.99,174.00" fill="#c8e8a0" stroke="#6aaa3a" stroke-width="1.5"/>
<polygon points="205.74,188.00 205.74,216.00 181.49,230.00 157.24,216.00 157.24,188.00 181.49,174.00" fill="#c8e8a0" stroke="#6aaa3a" stroke-width="1.5"/>
<polygon points="254.24,188.00 254.24,216.00 229.99,230.00 205.74,216.00 205.74,188.00 229.99,174.00" fill="#c8e8a0" stroke="#6aaa3a" stroke-width="1.5"/>
<polygon points="82.77,63.00 82.77,89.00 60.25,102.00 37.73,89.00 37.73,63.00 60.25,50.00" fill="none" stroke="#2aaa10" stroke-width="2.5"/>
<polygon points="155.51,189.00 155.51,215.00 132.99,228.00 110.47,215.00 110.47,189.00 132.99,176.00" fill="none" stroke="#2aaa10" stroke-width="2.5"/>
<polygon points="204.01,189.00 204.01,215.00 181.49,228.00 158.97,215.00 158.97,189.00 181.49,176.00" fill="none" stroke="#2aaa10" stroke-width="2.5"/>
<polygon points="228.26,63.00 228.26,89.00 205.74,102.00 183.22,89.00 183.22,63.00 205.74,50.00" fill="none" stroke="#2aaa10" stroke-width="2.5"/>
<polygon points="82.77,147.00 82.77,173.00 60.25,186.00 37.73,173.00 37.73,147.00 60.25,134.00" fill="none" stroke="#2aaa10" stroke-width="2.5"/>
<polygon points="155.51,21.00 155.51,47.00 132.99,60.00 110.47,47.00 110.47,21.00 132.99,8.00" fill="none" stroke="#2aaa10" stroke-width="2.5"/>
<polygon points="107.02,189.00 107.02,215.00 84.50,228.00 61.98,215.00 61.98,189.00 84.50,176.00" fill="none" stroke="#2aaa10" stroke-width="2.5"/>
<polygon points="204.01,21.00 204.01,47.00 181.49,60.00 158.97,47.00 158.97,21.00 181.49,8.00" fill="none" stroke="#2aaa10" stroke-width="2.5"/>
<polygon points="58.52,105.00 58.52,131.00 36.00,144.00 13.48,131.00 13.48,105.00 36.00,92.00" fill="none" stroke="#2aaa10" stroke-width="2.5"/>
<polygon points="228.26,147.00 228.26,173.00 205.74,186.00 183.22,173.00 183.22,147.00 205.74,134.00" fill="none" stroke="#2aaa10" stroke-width="2.5"/>
<line x1="221.6" y1="193.6" x2="238.4" y2="210.4" stroke="#c03030" stroke-width="2.5" stroke-linecap="round"/><line x1="238.4" y1="193.6" x2="221.6" y2="210.4" stroke="#c03030" stroke-width="2.5" stroke-linecap="round"/>
<line x1="221.6" y1="25.6" x2="238.4" y2="42.4" stroke="#c03030" stroke-width="2.5" stroke-linecap="round"/><line x1="238.4" y1="25.6" x2="221.6" y2="42.4" stroke="#c03030" stroke-width="2.5" stroke-linecap="round"/>
<line x1="76.1" y1="109.6" x2="92.9" y2="126.4" stroke="#c03030" stroke-width="2.5" stroke-linecap="round"/><line x1="92.9" y1="109.6" x2="76.1" y2="126.4" stroke="#c03030" stroke-width="2.5" stroke-linecap="round"/>
<line x1="27.6" y1="193.6" x2="44.4" y2="210.4" stroke="#c03030" stroke-width="2.5" stroke-linecap="round"/><line x1="44.4" y1="193.6" x2="27.6" y2="210.4" stroke="#c03030" stroke-width="2.5" stroke-linecap="round"/>
<line x1="148.8" y1="67.6" x2="165.6" y2="84.4" stroke="#c03030" stroke-width="2.5" stroke-linecap="round"/><line x1="165.6" y1="67.6" x2="148.8" y2="84.4" stroke="#c03030" stroke-width="2.5" stroke-linecap="round"/>
<line x1="245.8" y1="151.6" x2="262.6" y2="168.4" stroke="#c03030" stroke-width="2.5" stroke-linecap="round"/><line x1="262.6" y1="151.6" x2="245.8" y2="168.4" stroke="#c03030" stroke-width="2.5" stroke-linecap="round"/>
<line x1="245.8" y1="67.6" x2="262.6" y2="84.4" stroke="#c03030" stroke-width="2.5" stroke-linecap="round"/><line x1="262.6" y1="67.6" x2="245.8" y2="84.4" stroke="#c03030" stroke-width="2.5" stroke-linecap="round"/>
<line x1="27.6" y1="25.6" x2="44.4" y2="42.4" stroke="#c03030" stroke-width="2.5" stroke-linecap="round"/><line x1="44.4" y1="25.6" x2="27.6" y2="42.4" stroke="#c03030" stroke-width="2.5" stroke-linecap="round"/>
<line x1="100.3" y1="67.6" x2="117.2" y2="84.4" stroke="#c03030" stroke-width="2.5" stroke-linecap="round"/><line x1="117.2" y1="67.6" x2="100.3" y2="84.4" stroke="#c03030" stroke-width="2.5" stroke-linecap="round"/>
<line x1="221.6" y1="109.6" x2="238.4" y2="126.4" stroke="#c03030" stroke-width="2.5" stroke-linecap="round"/><line x1="238.4" y1="109.6" x2="221.6" y2="126.4" stroke="#c03030" stroke-width="2.5" stroke-linecap="round"/>
<line x1="148.8" y1="151.6" x2="165.6" y2="168.4" stroke="#c03030" stroke-width="2.5" stroke-linecap="round"/><line x1="165.6" y1="151.6" x2="148.8" y2="168.4" stroke="#c03030" stroke-width="2.5" stroke-linecap="round"/>
<line x1="76.1" y1="25.6" x2="92.9" y2="42.4" stroke="#c03030" stroke-width="2.5" stroke-linecap="round"/><line x1="92.9" y1="25.6" x2="76.1" y2="42.4" stroke="#c03030" stroke-width="2.5" stroke-linecap="round"/>
<line x1="173.1" y1="109.6" x2="189.9" y2="126.4" stroke="#c03030" stroke-width="2.5" stroke-linecap="round"/><line x1="189.9" y1="109.6" x2="173.1" y2="126.4" stroke="#c03030" stroke-width="2.5" stroke-linecap="round"/>
<line x1="100.3" y1="151.6" x2="117.2" y2="168.4" stroke="#c03030" stroke-width="2.5" stroke-linecap="round"/><line x1="117.2" y1="151.6" x2="100.3" y2="168.4" stroke="#c03030" stroke-width="2.5" stroke-linecap="round"/>
<polygon points="156.37,104.50 156.37,131.50 132.99,145.00 109.61,131.50 109.61,104.50 132.99,91.00" fill="none" stroke="#c9a84c" stroke-width="3"/>
<circle cx="127.0" cy="122.0" r="6.5" fill="#1c4a4a" stroke="white" stroke-width="1.5"/>
<circle cx="139.0" cy="122.0" r="6.5" fill="#1c4a4a" stroke="white" stroke-width="1.5"/>
<circle cx="133.0" cy="113.0" r="6.5" fill="#1c4a4a" stroke="white" stroke-width="1.5"/>
<line x1="8" y1="243" x2="294" y2="243" stroke="#c5a85a" stroke-width="0.75" opacity="0.5"/>
<polygon points="26.8,248.5 26.8,257.5 19.0,262.0 11.2,257.5 11.2,248.5 19.0,244.0" fill="none" stroke="#2aaa10" stroke-width="2.2"/>
<text x="34" y="257" font-size="9" font-family="serif" fill="#3a3020">Valid landing — exactly 2 steps away (any direction)</text>
<line x1="13" y1="263" x2="25" y2="275" stroke="#c03030" stroke-width="2.2" stroke-linecap="round"/><line x1="25" y1="263" x2="13" y2="275" stroke="#c03030" stroke-width="2.2" stroke-linecap="round"/>
<text x="34" y="273" font-size="9" font-family="serif" fill="#3a3020">Cannot land — adjacent, out of range, or mountain</text>
</svg>
