      <svg viewBox="0 0 399 286" xmlns="http://www.w3.org/2000/svg">
<polygon points="60.25,20.00 60.25,48.00 36.00,62.00 11.75,48.00 11.75,20.00 36.00,6.00" fill="#c8e8a0" stroke="#6aaa3a" stroke-width="1.5"/>
<polygon points="108.75,20.00 108.75,48.00 84.50,62.00 60.25,48.00 60.25,20.00 84.50,6.00" fill="#c8e8a0" stroke="#6aaa3a" stroke-width="1.5"/>
<polygon points="157.24,20.00 157.24,48.00 132.99,62.00 108.74,48.00 108.74,20.00 132.99,6.00" fill="#c8e8a0" stroke="#6aaa3a" stroke-width="1.5"/>
<polygon points="205.74,20.00 205.74,48.00 181.49,62.00 157.24,48.00 157.24,20.00 181.49,6.00" fill="#c8e8a0" stroke="#6aaa3a" stroke-width="1.5"/>
<polygon points="254.24,20.00 254.24,48.00 229.99,62.00 205.74,48.00 205.74,20.00 229.99,6.00" fill="#d8b8f0" stroke="#8840b8" stroke-width="1.5"/>
<polygon points="302.74,20.00 302.74,48.00 278.49,62.00 254.24,48.00 254.24,20.00 278.49,6.00" fill="#c8e8a0" stroke="#6aaa3a" stroke-width="1.5"/>
<polygon points="351.23,20.00 351.23,48.00 326.98,62.00 302.73,48.00 302.73,20.00 326.98,6.00" fill="#c8e8a0" stroke="#6aaa3a" stroke-width="1.5"/>
<polygon points="84.50,62.00 84.50,90.00 60.25,104.00 36.00,90.00 36.00,62.00 60.25,48.00" fill="#c8e8a0" stroke="#6aaa3a" stroke-width="1.5"/>
<polygon points="133.00,62.00 133.00,90.00 108.75,104.00 84.50,90.00 84.50,62.00 108.75,48.00" fill="#c8e8a0" stroke="#6aaa3a" stroke-width="1.5"/>
<polygon points="181.49,62.00 181.49,90.00 157.24,104.00 132.99,90.00 132.99,62.00 157.24,48.00" fill="#c8e8a0" stroke="#6aaa3a" stroke-width="1.5"/>
<polygon points="229.99,62.00 229.99,90.00 205.74,104.00 181.49,90.00 181.49,62.00 205.74,48.00" fill="#c8e8a0" stroke="#6aaa3a" stroke-width="1.5"/>
<polygon points="278.49,62.00 278.49,90.00 254.24,104.00 229.99,90.00 229.99,62.00 254.24,48.00" fill="#c8e8a0" stroke="#6aaa3a" stroke-width="1.5"/>
<polygon points="326.99,62.00 326.99,90.00 302.74,104.00 278.49,90.00 278.49,62.00 302.74,48.00" fill="#c8e8a0" stroke="#6aaa3a" stroke-width="1.5"/>
<polygon points="375.48,62.00 375.48,90.00 351.23,104.00 326.98,90.00 326.98,62.00 351.23,48.00" fill="#c8e8a0" stroke="#6aaa3a" stroke-width="1.5"/>
<polygon points="60.25,104.00 60.25,132.00 36.00,146.00 11.75,132.00 11.75,104.00 36.00,90.00" fill="#c8e8a0" stroke="#6aaa3a" stroke-width="1.5"/>
<polygon points="108.75,104.00 108.75,132.00 84.50,146.00 60.25,132.00 60.25,104.00 84.50,90.00" fill="#c8e8a0" stroke="#6aaa3a" stroke-width="1.5"/>
<polygon points="157.24,104.00 157.24,132.00 132.99,146.00 108.74,132.00 108.74,104.00 132.99,90.00" fill="#c8e8a0" stroke="#6aaa3a" stroke-width="1.5"/>
<polygon points="205.74,104.00 205.74,132.00 181.49,146.00 157.24,132.00 157.24,104.00 181.49,90.00" fill="#c8e8a0" stroke="#6aaa3a" stroke-width="1.5"/>
<polygon points="254.24,104.00 254.24,132.00 229.99,146.00 205.74,132.00 205.74,104.00 229.99,90.00" fill="#c8e8a0" stroke="#6aaa3a" stroke-width="1.5"/>
<polygon points="302.74,104.00 302.74,132.00 278.49,146.00 254.24,132.00 254.24,104.00 278.49,90.00" fill="#c8e8a0" stroke="#6aaa3a" stroke-width="1.5"/>
<polygon points="351.23,104.00 351.23,132.00 326.98,146.00 302.73,132.00 302.73,104.00 326.98,90.00" fill="#c8e8a0" stroke="#6aaa3a" stroke-width="1.5"/>
<polygon points="84.50,146.00 84.50,174.00 60.25,188.00 36.00,174.00 36.00,146.00 60.25,132.00" fill="#c8e8a0" stroke="#6aaa3a" stroke-width="1.5"/>
<polygon points="133.00,146.00 133.00,174.00 108.75,188.00 84.50,174.00 84.50,146.00 108.75,132.00" fill="#c8e8a0" stroke="#6aaa3a" stroke-width="1.5"/>
<polygon points="181.49,146.00 181.49,174.00 157.24,188.00 132.99,174.00 132.99,146.00 157.24,132.00" fill="#c8e8a0" stroke="#6aaa3a" stroke-width="1.5"/>
<polygon points="229.99,146.00 229.99,174.00 205.74,188.00 181.49,174.00 181.49,146.00 205.74,132.00" fill="#c8e8a0" stroke="#6aaa3a" stroke-width="1.5"/>
<polygon points="278.49,146.00 278.49,174.00 254.24,188.00 229.99,174.00 229.99,146.00 254.24,132.00" fill="#c8e8a0" stroke="#6aaa3a" stroke-width="1.5"/>
<polygon points="326.99,146.00 326.99,174.00 302.74,188.00 278.49,174.00 278.49,146.00 302.74,132.00" fill="#c8e8a0" stroke="#6aaa3a" stroke-width="1.5"/>
<polygon points="375.48,146.00 375.48,174.00 351.23,188.00 326.98,174.00 326.98,146.00 351.23,132.00" fill="#c8e8a0" stroke="#6aaa3a" stroke-width="1.5"/>
<polygon points="60.25,188.00 60.25,216.00 36.00,230.00 11.75,216.00 11.75,188.00 36.00,174.00" fill="#c8e8a0" stroke="#6aaa3a" stroke-width="1.5"/>
<polygon points="108.75,188.00 108.75,216.00 84.50,230.00 60.25,216.00 60.25,188.00 84.50,174.00" fill="#c8e8a0" stroke="#6aaa3a" stroke-width="1.5"/>
<polygon points="157.24,188.00 157.24,216.00 132.99,230.00 108.74,216.00 108.74,188.00 132.99,174.00" fill="#c8e8a0" stroke="#6aaa3a" stroke-width="1.5"/>
<polygon points="205.74,188.00 205.74,216.00 181.49,230.00 157.24,216.00 157.24,188.00 181.49,174.00" fill="#c8e8a0" stroke="#6aaa3a" stroke-width="1.5"/>
<polygon points="254.24,188.00 254.24,216.00 229.99,230.00 205.74,216.00 205.74,188.00 229.99,174.00" fill="#c8e8a0" stroke="#6aaa3a" stroke-width="1.5"/>
<polygon points="302.74,188.00 302.74,216.00 278.49,230.00 254.24,216.00 254.24,188.00 278.49,174.00" fill="#c8e8a0" stroke="#6aaa3a" stroke-width="1.5"/>
<polygon points="351.23,188.00 351.23,216.00 326.98,230.00 302.73,216.00 302.73,188.00 326.98,174.00" fill="#c8e8a0" stroke="#6aaa3a" stroke-width="1.5"/>
<polygon points="107.88,104.50 107.88,131.50 84.50,145.00 61.12,131.50 61.12,104.50 84.50,91.00" fill="none" stroke="#c9a84c" stroke-width="3"/>
<circle cx="78.5" cy="114.0" r="6.5" fill="#1c4a4a" stroke="white" stroke-width="1.5"/>
<circle cx="90.5" cy="114.0" r="6.5" fill="#1c4a4a" stroke="white" stroke-width="1.5"/>
<circle cx="78.5" cy="122.0" r="6.5" fill="#1c4a4a" stroke="white" stroke-width="1.5"/>
<circle cx="90.5" cy="122.0" r="6.5" fill="#1c4a4a" stroke="white" stroke-width="1.5"/>
<circle cx="133.0" cy="118.0" r="6.5" fill="#1c4a4a" stroke="white" stroke-width="1.5"/>
<circle cx="175.5" cy="122.0" r="6.5" fill="#1c4a4a" stroke="white" stroke-width="1.5"/>
<circle cx="187.5" cy="122.0" r="6.5" fill="#1c4a4a" stroke="white" stroke-width="1.5"/>
<circle cx="181.5" cy="113.0" r="6.5" fill="#1c4a4a" stroke="white" stroke-width="1.5"/>
<circle cx="157.2" cy="76.0" r="6.5" fill="#1c4a4a" stroke="white" stroke-width="1.5"/>
<circle cx="205.7" cy="160.0" r="6.5" fill="#8b1c1c" stroke="white" stroke-width="1.5"/>
<circle cx="224.0" cy="122.0" r="6.5" fill="#8b1c1c" stroke="white" stroke-width="1.5"/>
<circle cx="236.0" cy="122.0" r="6.5" fill="#8b1c1c" stroke="white" stroke-width="1.5"/>
<circle cx="230.0" cy="113.0" r="6.5" fill="#8b1c1c" stroke="white" stroke-width="1.5"/>
<circle cx="302.7" cy="76.0" r="6.5" fill="#8b1c1c" stroke="white" stroke-width="1.5"/>
<line x1="8" y1="243" x2="391" y2="243" stroke="#c5a85a" stroke-width="0.75" opacity="0.5"/>
<polygon points="26.8,251.5 26.8,260.5 19.0,265.0 11.2,260.5 11.2,251.5 19.0,247.0" fill="#d8b8f0" stroke="#8840b8" stroke-width="1.5"/>
<text x="34" y="260" font-size="9" font-family="serif" fill="#3a3020">Target hex → Biohazard. Surrounding units destroyed, hexes unchanged.</text>
</svg>
